<svg id="Capa_1" enable-background="new 0 0 512 512" height="512" viewBox="0 0 512 512" width="512" xmlns="http://www.w3.org/2000/svg"><g><path d="m211 45v15l15 10 15-10v-15c0-8.271 6.729-15 15-15l10-15-10-15c-24.813 0-45 20.187-45 45z" fill="#b5c8da"/><path d="m512 60h-151l-15-10-15 10h-75l-10 402 266-10z" fill="#008180"/><path d="m0 60v392l256 10v-402h-135l-15-10-15 10z" fill="#00b5b4"/><path d="m482 90h-226l-10 152 10 180h226z" fill="#e4ebf2"/><path d="m301 105v-60c0-24.813-20.187-45-45-45v30c8.271 0 15 6.729 15 15v60c0 8.271-6.729 15-15 15l-10 15 10 15c24.813 0 45-20.187 45-45z" fill="#8b9ec1"/><path d="m30 90h226v332h-226z" fill="#fff4f4"/><path d="m208.182 206.032-21.213-21.213-25.598 25.598-66.534-18.819-8.164 28.867 50.395 14.254-24.303 24.303-34.258-9.689-8.164 28.867 34.655 9.802 9.802 34.655 28.867-8.165-9.689-34.257 24.303-24.302 14.253 50.395 28.867-8.165-18.818-66.533z" fill="#ff5860"/><path d="m61 362h30v30h-30z" fill="#27326a"/><path d="m121 362h30v30h-30z" fill="#27326a"/><path d="m181 362h30v30h-30z" fill="#27326a"/><g fill="#110b50"><path d="m301 362h30v30h-30z"/><path d="m361 362h30v30h-30z"/><path d="m421 362h30v30h-30z"/><path d="m301 302h30v30h-30z"/><path d="m361 302h30v30h-30z"/><path d="m421 302h30v30h-30z"/><path d="m301 242h30v30h-30z"/><path d="m361 242h30v30h-30z"/><path d="m421 242h30v30h-30z"/><path d="m301 182h30v30h-30z"/><path d="m361 182h30v30h-30z"/><path d="m421 182h30v30h-30z"/></g><path d="m256 452-10 40 266-10v-30z" fill="#00b5b4"/><path d="m256 452h-256v30l256 10z" fill="#00eaa2"/><path d="m271 182h-15l-10 15 10 15h15z" fill="#110b50"/><path d="m271 242h-15l-10 15 10 15h15z" fill="#110b50"/><path d="m271 302h-15l-10 15 10 15h15z" fill="#110b50"/><path d="m271 362h-15l-10 15 10 15h15z" fill="#110b50"/><path d="m241 362h15v30h-15z" fill="#27326a"/><path d="m241 302h15v30h-15z" fill="#27326a"/><path d="m241 242h15v30h-15z" fill="#27326a"/><path d="m241 182h15v30h-15z" fill="#27326a"/><path d="m136 150v-30c8.271 0 15-6.729 15-15v-60c0-8.271-6.729-15-15-15s-15 6.729-15 15v15h-30v-15c0-24.813 20.187-45 45-45s45 20.187 45 45v60c0 24.813-20.187 45-45 45z" fill="#b5c8da"/><path d="m376 150v-30c8.271 0 15-6.729 15-15v-60c0-8.271-6.729-15-15-15s-15 6.729-15 15v15h-30v-15c0-24.813 20.187-45 45-45s45 20.187 45 45v60c0 24.813-20.187 45-45 45z" fill="#8b9ec1"/><path d="m256 512h256v-30h-256l-10 15z" fill="#008180"/><path d="m0 482h256v30h-256z" fill="#00b5b4"/></g></svg>